<svg width="141" height="49" viewBox="0 0 141 49" fill="none" xmlns="http://www.w3.org/2000/svg">
<path d="M38.8923 22.2452C38.2502 12.8157 32.8492 4.11972 22.1382 4.11972C12.8928 4.11972 5.75227 11.9003 4.92816 22.2452H38.8923ZM23.2363 44.6736C30.4692 44.6736 35.4125 41.4702 39.2569 37.35L42.3693 40.097C37.6091 45.2226 32.0258 48.8844 23.0537 48.8844C10.7865 48.8844 0.168274 39.0896 0.168274 24.5338V24.3508C0.168274 10.8018 9.6877 -0.000112008 22.3209 -0.000112008C35.4125 -0.000112008 43.7425 10.6188 43.7425 24.4421V24.6255C43.7425 25.2662 43.7424 25.5406 43.6515 26.273H4.92816C5.75227 37.8991 14.0819 44.6736 23.2363 44.6736Z" fill="#A5A6A9"/>
<path d="M88.968 24.9915C85.0298 23.9837 79.8129 22.8863 73.1297 22.8863C63.2429 22.8863 57.7509 27.2798 57.7509 33.7799V33.9626C57.7509 40.7374 64.159 44.6736 71.2988 44.6736C80.819 44.6736 88.968 38.8149 88.968 30.3015V24.9915ZM88.8763 47.7852V40.0047C85.6719 44.4916 79.9046 48.8844 71.0241 48.8844C62.3274 48.8844 52.99 43.9418 52.99 34.238V34.0546C52.99 24.3508 61.3207 18.8581 73.4055 18.8581C79.9046 18.8581 84.3904 19.6819 88.8763 20.8717V18.8581C88.8763 9.42901 83.1079 4.5771 73.4965 4.5771C67.8208 4.5771 63.1519 6.13328 58.849 8.3302L57.2012 4.39373C62.3274 2.01344 67.3627 0.36627 73.7715 0.36627C85.7629 0.36627 93.2695 6.591 93.2695 18.6748V47.7852H88.8763" fill="#A5A6A9"/>
<path d="M124.488 48.7014C117.712 48.7014 110.298 45.9547 105.355 41.9276L108.009 38.3561C113.134 42.2937 118.812 44.4916 124.761 44.4916C131.079 44.4916 136.021 41.0115 136.021 35.6112V35.4275C136.021 29.9348 130.163 27.9213 123.662 26.0904C116.065 23.8928 107.643 21.6038 107.643 13.2738V13.0908C107.643 5.58392 113.959 0.182944 123.023 0.182944C128.606 0.182944 134.923 2.19684 139.592 5.30921L137.211 9.06267C132.908 6.22466 127.782 4.39377 122.839 4.39377C116.43 4.39377 112.22 7.87287 112.22 12.5414V12.7248C112.22 17.9424 118.537 19.8653 125.219 21.7875C132.724 23.8928 140.599 26.6391 140.599 34.8781V35.0615C140.599 43.3925 133.458 48.7014 124.488 48.7014" fill="#A5A6A9"/>
</svg>
