<svg width="1040" height="487" viewBox="0 0 1040 487" fill="none" xmlns="http://www.w3.org/2000/svg">
<path d="M856.395 126.465C872.284 96.9533 842.503 67.1266 815.254 58C812.157 89.956 822.873 126.923 856.395 126.465Z" fill="#76BF65"/>
<path d="M866.707 126.465C850.815 96.9533 880.597 67.1266 907.849 58C910.944 89.956 900.227 126.923 866.707 126.465Z" fill="#73C52E"/>
<path d="M856.395 344.653C872.284 374.151 842.503 403.976 815.254 413.106C812.157 381.152 822.873 344.187 856.395 344.653Z" fill="#A1DA6A"/>
<path d="M866.707 344.653C850.815 374.151 880.597 403.976 907.849 413.106C910.944 381.152 900.227 344.187 866.707 344.653Z" fill="#A4C181"/>
<path d="M970.645 230.401C1000.15 246.284 1029.98 216.501 1039.11 189.252C1007.15 186.164 970.187 196.879 970.645 230.401" fill="#C7E8A0"/>
<path d="M970.645 240.708C1000.15 224.817 1029.98 254.596 1039.11 281.852C1007.15 284.951 970.187 274.228 970.645 240.708Z" fill="#85AF5D"/>
<path d="M752.464 230.401C722.952 246.284 693.128 216.501 684 189.252C715.953 186.164 752.922 196.879 752.464 230.401" fill="#A1DA6A"/>
<path d="M752.464 240.708C722.952 224.817 693.128 254.596 684 281.852C715.953 284.951 752.922 274.228 752.464 240.708" fill="#76BF65"/>
<path d="M779.725 162.061C770.107 129.957 727.948 129.924 702.229 142.751C722.629 167.528 756.352 186.089 779.725 162.061Z" fill="#A3D88E"/>
<path d="M787.018 154.773C754.918 145.149 754.888 102.988 767.703 77.2681C792.492 97.6748 811.05 131.396 787.018 154.773Z" fill="#73C52E"/>
<path d="M934.008 316.34C966.115 325.961 966.137 368.116 953.324 393.836C928.544 373.439 909.981 339.721 934.008 316.34Z" fill="#A3D88E"/>
<path d="M941.297 309.053C950.925 341.157 993.08 341.177 1018.8 328.363C998.393 303.584 964.676 285.024 941.297 309.053" fill="#62B756"/>
<path d="M934.008 154.768C966.115 145.14 966.137 102.988 953.324 77.2654C928.544 97.6681 909.981 131.396 934.008 154.768Z" fill="#74A64D"/>
<path d="M941.297 162.057C950.925 129.957 993.08 129.92 1018.8 142.744C998.396 167.528 964.676 186.089 941.297 162.057" fill="#A3D88E"/>
<path d="M779.734 309.053C770.107 341.151 727.948 341.177 702.232 328.363C722.635 303.584 756.352 285.024 779.734 309.053Z" fill="#BAD6AA"/>
<path d="M787.023 316.34C754.918 325.961 754.888 368.109 767.708 393.836C792.492 373.432 811.05 339.721 787.023 316.34Z" fill="#9ED762"/>
<path d="M148.673 227.459C146.208 191.256 125.472 157.87 84.3493 157.87C48.8533 157.87 21.4387 187.742 18.2747 227.459H148.673ZM88.5654 313.568C116.335 313.568 135.313 301.27 150.073 285.451L162.023 295.998C143.747 315.676 122.311 329.735 87.864 329.735C40.7667 329.735 0 292.13 0 236.246V235.543C0 183.524 36.548 142.052 85.0506 142.052C135.313 142.052 167.295 182.822 167.295 235.894V236.598C167.295 239.058 167.295 240.111 166.945 242.923H18.2747C21.4387 287.559 53.4187 313.568 88.5654 313.568Z" fill="#A5A6A9"/>
<path d="M340.929 238.003C325.809 234.134 305.78 229.92 280.121 229.92C242.163 229.92 221.077 246.788 221.077 271.744V272.446C221.077 298.456 245.68 313.568 273.092 313.568C309.643 313.568 340.929 291.075 340.929 258.39V238.003ZM340.577 325.515V295.643C328.275 312.87 306.132 329.735 272.037 329.735C238.648 329.735 202.799 310.759 202.799 273.503V272.799C202.799 235.543 234.783 214.455 281.18 214.455C306.132 214.455 323.355 217.618 340.577 222.186V214.455C340.577 178.254 318.431 159.626 281.529 159.626C259.739 159.626 241.813 165.6 225.293 174.035L218.967 158.922C238.648 149.783 257.98 143.459 282.585 143.459C328.624 143.459 357.444 167.358 357.444 213.751V325.515H340.577" fill="#A5A6A9"/>
<path d="M477.3 329.032C451.285 329.032 422.82 318.487 403.843 303.025L414.035 289.313C433.711 304.431 455.508 312.869 478.349 312.869C502.607 312.869 521.58 299.508 521.58 278.775V278.069C521.58 256.981 499.088 249.251 474.132 242.221C444.964 233.784 412.627 224.996 412.627 193.015V192.312C412.627 163.491 436.877 142.755 471.676 142.755C493.112 142.755 517.365 150.487 535.289 162.436L526.151 176.847C509.629 165.951 489.947 158.921 470.972 158.921C446.365 158.921 430.201 172.279 430.201 190.203V190.907C430.201 210.939 454.453 218.321 480.108 225.701C508.924 233.784 539.157 244.328 539.157 275.96V276.664C539.157 308.649 511.74 329.032 477.3 329.032" fill="#A5A6A9"/>
</svg>
