<svg width="271" height="127" viewBox="0 0 271 127" fill="none" xmlns="http://www.w3.org/2000/svg">
<path d="M223.06 32.9396C227.198 25.2528 219.441 17.484 212.344 15.1069C211.537 23.4302 214.328 33.0587 223.06 32.9396Z" fill="#76BF65"/>
<path d="M225.745 32.9396C221.606 25.2528 229.363 17.484 236.462 15.1069C237.268 23.4302 234.476 33.0587 225.745 32.9396Z" fill="#73C52E"/>
<path d="M223.06 89.7695C227.198 97.4526 219.441 105.221 212.344 107.599C211.537 99.2761 214.328 89.648 223.06 89.7695Z" fill="#A1DA6A"/>
<path d="M225.745 89.7695C221.606 97.4526 229.363 105.221 236.462 107.599C237.268 99.2761 234.476 89.648 225.745 89.7695Z" fill="#A4C181"/>
<path d="M252.818 60.0111C260.502 64.148 268.272 56.3907 270.65 49.2932C262.326 48.4889 252.698 51.2797 252.818 60.0111" fill="#C7E8A0"/>
<path d="M252.818 62.6956C260.502 58.5566 268.272 66.3129 270.65 73.4121C262.326 74.2192 252.698 71.4263 252.818 62.6956Z" fill="#85AF5D"/>
<path d="M195.989 60.0111C188.303 64.148 180.535 56.3907 178.157 49.2932C186.479 48.4889 196.109 51.2797 195.989 60.0111" fill="#A1DA6A"/>
<path d="M195.989 62.6956C188.303 58.5566 180.535 66.3129 178.157 73.4121C186.479 74.2192 196.109 71.4263 195.989 62.6956" fill="#76BF65"/>
<path d="M203.09 42.211C200.585 33.849 189.604 33.8404 182.905 37.1812C188.219 43.6348 197.002 48.4694 203.09 42.211Z" fill="#A3D88E"/>
<path d="M204.989 40.3127C196.629 37.806 196.621 26.8245 199.959 20.1254C206.415 25.4406 211.249 34.2238 204.989 40.3127Z" fill="#73C52E"/>
<path d="M243.275 82.395C251.638 84.901 251.644 95.8808 248.306 102.58C241.852 97.2672 237.017 88.485 243.275 82.395Z" fill="#A3D88E"/>
<path d="M245.174 80.497C247.681 88.8589 258.661 88.8641 265.36 85.5264C260.045 79.0724 251.263 74.2382 245.174 80.497" fill="#62B756"/>
<path d="M243.275 40.3113C251.638 37.8035 251.644 26.8245 248.306 20.1246C241.852 25.4388 237.017 34.2237 243.275 40.3113Z" fill="#74A64D"/>
<path d="M245.174 42.2101C247.681 33.8492 258.661 33.8395 265.36 37.1796C260.046 43.635 251.263 48.4695 245.174 42.2101" fill="#A3D88E"/>
<path d="M203.092 80.497C200.585 88.8572 189.604 88.8641 182.906 85.5264C188.22 79.0724 197.002 74.2382 203.092 80.497Z" fill="#BAD6AA"/>
<path d="M204.991 82.395C196.629 84.901 196.621 95.879 199.96 102.58C206.415 97.2654 211.249 88.485 204.991 82.395Z" fill="#9ED762"/>
<path d="M38.724 59.2446C38.0819 49.8151 32.6809 41.1191 21.9699 41.1191C12.7245 41.1191 5.584 48.8997 4.75989 59.2446H38.724ZM23.0681 81.673C30.301 81.673 35.2442 78.4696 39.0887 74.3494L42.201 77.0964C37.4408 82.222 31.8575 85.8838 22.8854 85.8838C10.6182 85.8838 0 76.089 0 61.5332V61.3502C0 47.8012 9.51942 36.9993 22.1526 36.9993C35.2442 36.9993 43.5742 47.6182 43.5742 61.4415V61.6249C43.5742 62.2656 43.5742 62.54 43.4832 63.2724H4.75989C5.584 74.8985 13.9136 81.673 23.0681 81.673Z" fill="#A5A6A9"/>
<path d="M88.7998 61.9909C84.8616 60.9831 79.6447 59.8857 72.9615 59.8857C63.0747 59.8857 57.5827 64.2792 57.5827 70.7793V70.962C57.5827 77.7368 63.9908 81.673 71.1306 81.673C80.6507 81.673 88.7998 75.8143 88.7998 67.3009V61.9909ZM88.7081 84.7846V77.0041C85.5037 81.491 79.7364 85.8838 70.8559 85.8838C62.1592 85.8838 52.8218 80.9412 52.8218 71.2374V71.054C52.8218 61.3502 61.1524 55.8575 73.2373 55.8575C79.7363 55.8575 84.2222 56.6813 88.7081 57.8711V55.8575C88.7081 46.4284 82.9397 41.5765 73.3283 41.5765C67.6526 41.5765 62.9837 43.1327 58.6808 45.3296L57.0329 41.3931C62.1592 39.0128 67.1945 37.3657 73.6033 37.3657C85.5947 37.3657 93.1013 43.5904 93.1013 55.6742V84.7846H88.7081" fill="#A5A6A9"/>
<path d="M124.319 85.7007C117.543 85.7007 110.129 82.954 105.186 78.9269L107.841 75.3554C112.966 79.2929 118.643 81.4909 124.593 81.4909C130.911 81.4909 135.853 78.0108 135.853 72.6105V72.4268C135.853 66.9341 129.994 64.9205 123.494 63.0897C115.897 60.892 107.474 58.6031 107.474 50.2731V50.0901C107.474 42.5832 113.791 37.1822 122.855 37.1822C128.438 37.1822 134.755 39.1961 139.423 42.3085L137.043 46.0619C132.74 43.2239 127.613 41.393 122.671 41.393C116.262 41.393 112.052 44.8721 112.052 49.5407V49.7241C112.052 54.9417 118.369 56.8646 125.051 58.7868C132.556 60.892 140.431 63.6384 140.431 71.8774V72.0607C140.431 80.3917 133.29 85.7007 124.319 85.7007" fill="#A5A6A9"/>
<path d="M158 126.618V0.0207774H159.505V126.618H158Z" fill="#A3D88E"/>
</svg>
