<svg width="271" height="127" viewBox="0 0 271 127" fill="none" xmlns="http://www.w3.org/2000/svg">
<path d="M168.892 59.2449C168.25 49.8154 162.849 41.1194 152.138 41.1194C142.893 41.1194 135.752 48.8999 134.928 59.2449H168.892ZM153.236 81.6732C160.469 81.6732 165.412 78.4698 169.257 74.3497L172.369 77.0967C167.609 82.2223 162.026 85.884 153.054 85.884C140.786 85.884 130.168 76.0892 130.168 61.5335V61.3504C130.168 47.8015 139.688 36.9995 152.321 36.9995C165.412 36.9995 173.742 47.6184 173.742 61.4418V61.6251C173.742 62.2659 173.742 62.5402 173.651 63.2727H134.928C135.752 74.8987 144.082 81.6732 153.236 81.6732Z" fill="#A5A6A9"/>
<path d="M218.968 61.9912C215.03 60.9834 209.813 59.8859 203.13 59.8859C193.243 59.8859 187.751 64.2794 187.751 70.7796V70.9622C187.751 77.7371 194.159 81.6732 201.299 81.6732C210.819 81.6732 218.968 75.8145 218.968 67.3012V61.9912ZM218.876 84.7849V77.0043C215.672 81.4912 209.905 85.884 201.024 85.884C192.327 85.884 182.99 80.9415 182.99 71.2376V71.0543C182.99 61.3504 191.321 55.8578 203.405 55.8578C209.905 55.8578 214.39 56.6815 218.876 57.8713V55.8578C218.876 46.4286 213.108 41.5767 203.496 41.5767C197.821 41.5767 193.152 43.1329 188.849 45.3298L187.201 41.3934C192.327 39.0131 197.363 37.3659 203.772 37.3659C215.763 37.3659 223.269 43.5906 223.269 55.6744V84.7849H218.876" fill="#A5A6A9"/>
<path d="M254.488 85.7009C247.712 85.7009 240.298 82.9543 235.355 78.9271L238.009 75.3557C243.134 79.2932 248.812 81.4911 254.761 81.4911C261.079 81.4911 266.021 78.011 266.021 72.6107V72.427C266.021 66.9343 260.163 64.9208 253.662 63.0899C246.065 60.8923 237.643 58.6033 237.643 50.2734V50.0903C237.643 42.5834 243.959 37.1825 253.023 37.1825C258.606 37.1825 264.923 39.1964 269.592 42.3087L267.211 46.0622C262.908 43.2242 257.782 41.3933 252.839 41.3933C246.43 41.3933 242.22 44.8724 242.22 49.5409V49.7243C242.22 54.9419 248.537 56.8648 255.219 58.787C262.724 60.8923 270.599 63.6386 270.599 71.8776V72.061C270.599 80.392 263.458 85.7009 254.488 85.7009" fill="#A5A6A9"/>
<path d="M44.9026 34.6032C49.0412 26.9164 41.2842 19.1476 34.1868 16.7704C33.3802 25.0938 36.1715 34.7223 44.9026 34.6032Z" fill="#76BF65"/>
<path d="M47.5884 34.6032C43.4491 26.9164 51.2064 19.1476 58.3046 16.7704C59.1106 25.0938 56.3192 34.7223 47.5884 34.6032Z" fill="#73C52E"/>
<path d="M44.9026 91.4331C49.0412 99.1161 41.2842 106.884 34.1868 109.263C33.3802 100.94 36.1715 91.3116 44.9026 91.4331Z" fill="#A1DA6A"/>
<path d="M47.5884 91.4331C43.4491 99.1161 51.2064 106.884 58.3046 109.263C59.1106 100.94 56.3192 91.3116 47.5884 91.4331Z" fill="#A4C181"/>
<path d="M74.6606 61.6747C82.345 65.8115 90.1152 58.0542 92.4927 50.9568C84.1693 50.1525 74.5412 52.9432 74.6606 61.6747" fill="#C7E8A0"/>
<path d="M74.6606 64.3592C82.345 60.2202 90.1152 67.9765 92.4927 75.0757C84.1693 75.8828 74.5412 73.0899 74.6606 64.3592Z" fill="#85AF5D"/>
<path d="M17.8323 61.6747C10.1456 65.8115 2.37754 58.0542 0 50.9568C8.32251 50.1525 17.9518 52.9432 17.8323 61.6747" fill="#A1DA6A"/>
<path d="M17.8323 64.3592C10.1456 60.2202 2.37754 67.9765 0 75.0757C8.32251 75.8828 17.9518 73.0899 17.8323 64.3592" fill="#76BF65"/>
<path d="M24.9329 43.8745C22.4277 35.5126 11.4468 35.5039 4.74786 38.8448C10.0615 45.2984 18.8449 50.133 24.9329 43.8745Z" fill="#A3D88E"/>
<path d="M26.8324 41.9763C18.4717 39.4696 18.4638 28.4881 21.8015 21.789C28.2582 27.1042 33.0919 35.8874 26.8324 41.9763Z" fill="#73C52E"/>
<path d="M65.118 84.0586C73.4806 86.5646 73.4865 97.5444 70.1491 104.243C63.6948 98.9308 58.8599 90.1486 65.118 84.0586Z" fill="#A3D88E"/>
<path d="M67.0166 82.1606C69.5243 90.5225 80.5041 90.5277 87.2029 87.1899C81.888 80.736 73.1059 75.9018 67.0166 82.1606" fill="#62B756"/>
<path d="M65.118 41.9749C73.4806 39.4671 73.4865 28.488 70.1491 21.7882C63.6948 27.1024 58.8599 35.8873 65.118 41.9749Z" fill="#74A64D"/>
<path d="M67.0166 43.8736C69.5243 35.5128 80.5041 35.503 87.2029 38.8432C81.8887 45.2985 73.1059 50.1331 67.0166 43.8736" fill="#A3D88E"/>
<path d="M24.9353 82.1606C22.4278 90.5207 11.4469 90.5277 4.7489 87.1899C10.0632 80.736 18.845 75.9018 24.9353 82.1606Z" fill="#BAD6AA"/>
<path d="M26.8339 84.0586C18.4716 86.5646 18.4638 97.5426 21.8029 104.243C28.2582 98.929 33.0919 90.1486 26.8339 84.0586Z" fill="#9ED762"/>
<path d="M110.362 127V0.402857H111.868V127H110.362Z" fill="#A3D88E"/>
</svg>
