<svg width="1039" height="488" viewBox="0 0 1039 488" fill="none" xmlns="http://www.w3.org/2000/svg">
<path d="M648.429 228.453C645.964 192.251 625.228 158.864 584.105 158.864C548.609 158.864 521.195 188.736 518.031 228.453H648.429ZM588.321 314.563C616.091 314.563 635.069 302.264 649.829 286.445L661.779 296.992C643.503 316.671 622.067 330.729 587.62 330.729C540.523 330.729 499.756 293.124 499.756 237.24V236.537C499.756 184.519 536.304 143.047 584.807 143.047C635.069 143.047 667.051 183.816 667.051 236.888V237.592C667.051 240.052 667.051 241.105 666.701 243.917H518.031C521.195 288.553 553.175 314.563 588.321 314.563Z" fill="#A5A6A9"/>
<path d="M840.685 238.997C825.565 235.128 805.536 230.915 779.877 230.915C741.919 230.915 720.833 247.783 720.833 272.739V273.44C720.833 299.451 745.436 314.563 772.848 314.563C809.399 314.563 840.685 292.069 840.685 259.384V238.997ZM840.333 326.509V296.637C828.031 313.864 805.888 330.729 771.793 330.729C738.404 330.729 702.555 311.753 702.555 274.497V273.793C702.555 236.537 734.539 215.449 780.936 215.449C805.888 215.449 823.111 218.612 840.333 223.18V215.449C840.333 179.248 818.187 160.62 781.285 160.62C759.495 160.62 741.569 166.595 725.049 175.029L718.723 159.916C738.404 150.777 757.736 144.453 782.341 144.453C828.38 144.453 857.2 168.352 857.2 214.745V326.509H840.333" fill="#A5A6A9"/>
<path d="M977.056 330.027C951.041 330.027 922.576 319.481 903.599 304.02L913.791 290.308C933.467 305.425 955.264 313.864 978.105 313.864C1002.36 313.864 1021.34 300.503 1021.34 279.769V279.064C1021.34 257.976 998.844 250.245 973.888 243.216C944.72 234.779 912.383 225.991 912.383 194.009V193.307C912.383 164.485 936.633 143.749 971.432 143.749C992.868 143.749 1017.12 151.481 1035.05 163.431L1025.91 177.841C1009.39 166.945 989.703 159.916 970.728 159.916C946.121 159.916 929.957 173.273 929.957 191.197V191.901C929.957 211.933 954.209 219.316 979.864 226.696C1008.68 234.779 1038.91 245.323 1038.91 276.955V277.659C1038.91 309.644 1011.5 330.027 977.056 330.027" fill="#A5A6A9"/>
<path d="M172.395 133.847C188.284 104.335 158.503 74.5081 131.254 65.3814C128.157 97.3374 138.873 134.304 172.395 133.847Z" fill="#76BF65"/>
<path d="M182.707 133.847C166.815 104.335 196.597 74.5081 223.849 65.3814C226.944 97.3374 216.227 134.304 182.707 133.847Z" fill="#73C52E"/>
<path d="M172.395 352.035C188.284 381.532 158.503 411.357 131.254 420.488C128.157 388.533 138.873 351.568 172.395 352.035Z" fill="#A1DA6A"/>
<path d="M182.707 352.035C166.815 381.532 196.597 411.357 223.849 420.488C226.944 388.533 216.227 351.568 182.707 352.035Z" fill="#A4C181"/>
<path d="M286.645 237.783C316.148 253.665 345.98 223.883 355.108 196.633C323.152 193.545 286.187 204.26 286.645 237.783" fill="#C7E8A0"/>
<path d="M286.645 248.089C316.148 232.199 345.98 261.977 355.108 289.233C323.152 292.332 286.187 281.609 286.645 248.089Z" fill="#85AF5D"/>
<path d="M68.4636 237.783C38.9521 253.665 9.12812 223.883 0 196.633C31.9527 193.545 68.9224 204.26 68.4636 237.783" fill="#A1DA6A"/>
<path d="M68.4636 248.089C38.9521 232.199 9.12812 261.977 0 289.233C31.9527 292.332 68.9224 281.609 68.4636 248.089" fill="#76BF65"/>
<path d="M95.725 169.443C86.1068 137.339 43.9478 137.305 18.2286 150.132C38.6292 174.909 72.3516 193.471 95.725 169.443Z" fill="#A3D88E"/>
<path d="M103.018 162.155C70.9183 152.531 70.888 110.369 83.7027 84.6494C108.492 105.056 127.05 138.777 103.018 162.155Z" fill="#73C52E"/>
<path d="M250.008 323.721C282.115 333.343 282.137 375.497 269.324 401.217C244.544 380.82 225.981 347.103 250.008 323.721Z" fill="#A3D88E"/>
<path d="M257.297 316.435C266.925 348.539 309.08 348.559 334.799 335.744C314.393 310.965 280.676 292.405 257.297 316.435" fill="#62B756"/>
<path d="M250.008 162.149C282.115 152.521 282.137 110.369 269.324 84.6467C244.544 105.049 225.981 138.777 250.008 162.149Z" fill="#74A64D"/>
<path d="M257.297 169.439C266.925 137.339 309.08 137.301 334.799 150.125C314.396 174.909 280.676 193.471 257.297 169.439" fill="#A3D88E"/>
<path d="M95.7339 316.435C86.1068 348.532 43.9479 348.559 18.2323 335.744C38.6355 310.965 72.3516 292.405 95.7339 316.435Z" fill="#BAD6AA"/>
<path d="M103.023 323.721C70.9182 333.343 70.888 375.491 83.7078 401.217C108.492 380.813 127.05 347.103 103.023 323.721Z" fill="#9ED762"/>
</svg>
