<svg xmlns="http://www.w3.org/2000/svg" viewBox="0 0 92.58472 144.51048"><defs><style>.cls-1{fill:none;stroke:#85c986;stroke-linecap:round;stroke-miterlimit:10;stroke-width:3px;}</style></defs><g id="Layer_2" data-name="Layer 2"><g id="Layer_1-2" data-name="Layer 1"><path class="cls-1" d="M41.3343,112.71283c-6.31149,2.17638-10.27121,10.51245-10.01133,15.017a15.79356,15.79356,0,0,0,15.37892,15.28065c13.11295,0,16.014-9.891,16.17854-15.49829.02708-16.72741-28.6111-15.18107-27.64-39.17477,3.606-29.01478,31.19272-26.47879,33.172-44.84929.405-10.95941-12.49442-18.06124-20.549-17.61271C19.98116,27.03509,30.12514,51.46724,14.1296,50.03319c-9.61183.38254-12.7957-7.80448-12.623-12.1877C2.08947,23.05311,20.87636,1.5,46.99288,1.5c30.68691,0,46.42345,28.07526,43.8118,42.00406-.65292,31.7751-25.96551,34.822-30.10063,43.96281-2.61165,22.41668-6.243,16.1546-8.52045,20.319"/></g></g></svg>