<?xml version="1.0" encoding="utf-8"?>
<!-- Generator: Adobe Illustrator 24.0.2, SVG Export Plug-In . SVG Version: 6.00 Build 0)  -->
<svg version="1.1" id="Layer_1" xmlns="http://www.w3.org/2000/svg" xmlns:xlink="http://www.w3.org/1999/xlink" x="0px" y="0px"
	 viewBox="0 0 612 792" style="enable-background:new 0 0 612 792;" xml:space="preserve">
<style type="text/css">
	.st0{fill:#D5D600;stroke:#D5D600;stroke-width:0.75;stroke-miterlimit:10;}
</style>
<g>
	<path class="st0" d="M321.1,275.4L188.2,528.7c2.2,0,4.3,0,6.5,0l132.9-253.3C325.4,275.4,323.3,275.4,321.1,275.4z"/>
	<path class="st0" d="M309.7,275.4L176.8,528.7c2.3,0,4.5,0,6.8,0l132.9-253.3C314.3,275.4,312,275.4,309.7,275.4z"/>
	<path class="st0" d="M343.5,275.4L210.6,528.7c2.3,0,4.6,0,6.8,0l132.9-253.3C348.1,275.4,345.8,275.4,343.5,275.4z"/>
	<path class="st0" d="M332.1,275.4L199.2,528.7c2.3,0,4.5,0,6.8,0L339,275.4C336.7,275.4,334.4,275.4,332.1,275.4z"/>
	<path class="st0" d="M298.4,275.4L165.5,528.7c2.3,0,4.5,0,6.8,0l132.9-253.3C302.9,275.4,300.6,275.4,298.4,275.4z"/>
	<path class="st0" d="M265.5,275.4L132.6,528.7c2.3,0,4.5,0,6.8,0l132.9-253.3C270.1,275.4,267.8,275.4,265.5,275.4z"/>
	<path class="st0" d="M354.9,275.4L222,528.7c2.3,0,4.6,0,6.8,0l132.9-253.3C359.4,275.4,357.2,275.4,354.9,275.4z"/>
	<path class="st0" d="M254.1,275.4L121.2,528.7c2.3,0,4.5,0,6.8,0L261,275.4C258.7,275.4,256.4,275.4,254.1,275.4z"/>
	<path class="st0" d="M276.9,275.4L144,528.7c1.8,0,3.7,0,5.6,0l132.9-253.3C280.6,275.4,278.7,275.4,276.9,275.4z"/>
	<path class="st0" d="M287,275.4L154.1,528.7c2.3,0,4.5,0,6.8,0l132.9-253.3C291.5,275.4,289.3,275.4,287,275.4z"/>
	<path class="st0" d="M366.2,275.4L233.4,528.7c1.8,0,3.7,0,5.6,0l132.9-253.3C370,275.4,368.1,275.4,366.2,275.4z"/>
	<path class="st0" d="M431.9,275.4L299,528.7c2.3,0,4.6,0,6.8,0l132.9-253.3C436.4,275.4,434.2,275.4,431.9,275.4z"/>
	<path class="st0" d="M242.8,275.4L109.9,528.7c2.3,0,4.5,0,6.8,0l132.9-253.3C247.3,275.4,245,275.4,242.8,275.4z"/>
	<path class="st0" d="M443.2,275.4L310.3,528.7c2.3,0,4.6,0,6.8,0L450,275.6C447.7,275.5,445.5,275.4,443.2,275.4z"/>
	<path class="st0" d="M463.8,277.2l-132,251.6c2.3,0,4.6,0,6.8,0L470,278.4C467.9,277.9,465.9,277.5,463.8,277.2z"/>
	<path class="st0" d="M474,279.3L343.2,528.7c2.3,0,4.6,0,6.8,0L480,281C478,280.4,476,279.8,474,279.3z"/>
	<path class="st0" d="M454.3,276L321.7,528.7c1.9,0,3.7,0,5.6,0l132.3-252.2C457.8,276.3,456.1,276.1,454.3,276z"/>
	<path class="st0" d="M387.7,275.4L254.8,528.7c2.3,0,4.6,0,6.8,0l132.9-253.3C392.3,275.4,390,275.4,387.7,275.4z"/>
	<path class="st0" d="M376.3,275.4L243.4,528.7c2.3,0,4.6,0,6.8,0l132.9-253.3C380.9,275.4,378.6,275.4,376.3,275.4z"/>
	<path class="st0" d="M483.9,282.3L354.6,528.7c2.3,0,4.6,0,6.8,0l128.2-244.4C487.7,283.6,485.8,282.9,483.9,282.3z"/>
	<path class="st0" d="M399.1,275.4L266.2,528.7c2.3,0,4.6,0,6.8,0l132.9-253.3C403.7,275.4,401.4,275.4,399.1,275.4z"/>
	<path class="st0" d="M420.5,275.4L287.6,528.7c2.3,0,4.6,0,6.8,0l132.9-253.3C425.1,275.4,422.8,275.4,420.5,275.4z"/>
	<path class="st0" d="M410.5,275.4L277.6,528.7c1.8,0,3.7,0,5.5,0L416,275.4C414.1,275.4,412.3,275.4,410.5,275.4z"/>
	<path class="st0" d="M77.3,275.4L0,422.7v13l84.1-160.3C81.8,275.4,79.5,275.4,77.3,275.4z"/>
	<path class="st0" d="M55.9,275.4L0,381.9v10.5l61.4-117C59.5,275.4,57.7,275.4,55.9,275.4z"/>
	<path class="st0" d="M232.7,275.4L99.8,528.7c1.8,0,3.6,0,5.5,0l132.9-253.3C236.4,275.4,234.6,275.4,232.7,275.4z"/>
	<path class="st0" d="M88.6,275.4L0,444.4v13l95.5-182C93.2,275.4,90.9,275.4,88.6,275.4z"/>
	<path class="st0" d="M100,275.4L0,466.1v10.6l105.6-201.2C103.7,275.4,101.9,275.4,100,275.4z"/>
	<path class="st0" d="M11.7,275.4L0,297.6v10.6l17.2-32.8C15.2,275.4,13.3,275.4,11.7,275.4z"/>
	<path class="st0" d="M0.3,275.4L0,276v13l7.1-13.6C3.4,275.4,1,275.4,0.3,275.4z"/>
	<path class="st0" d="M44.5,275.4L0,360.2v13l51.3-97.8C49,275.4,46.7,275.4,44.5,275.4z"/>
	<path class="st0" d="M110.1,275.4L0,485.3v13l116.9-222.9C114.6,275.4,112.4,275.4,110.1,275.4z"/>
	<path class="st0" d="M21.8,275.4L0,316.9v13l28.6-54.5C26.2,275.4,23.9,275.4,21.8,275.4z"/>
	<path class="st0" d="M33.1,275.4L0,338.6v13l40-76.2C37.6,275.4,35.3,275.4,33.1,275.4z"/>
	<path class="st0" d="M65.9,275.4L0,401v13l72.7-138.6C70.4,275.4,68.1,275.4,65.9,275.4z"/>
	<path class="st0" d="M198.6,275.4L65.7,528.7c2.2,0,4.5,0,6.8,0l132.9-253.3C203.2,275.4,200.9,275.4,198.6,275.4z"/>
	<path class="st0" d="M188.5,275.4L55.6,528.7c1.8,0,3.7,0,5.6,0l132.9-253.3C192.2,275.4,190.4,275.4,188.5,275.4z"/>
	<path class="st0" d="M177.2,275.4L44.3,528.7c2.2,0,4.5,0,6.8,0L184,275.4C181.7,275.4,179.4,275.4,177.2,275.4z"/>
	<path class="st0" d="M121.5,275.4L0,507v13l128.3-244.6C126,275.4,123.7,275.4,121.5,275.4z"/>
	<path class="st0" d="M210,275.4L77.1,528.7c2.2,0,4.5,0,6.8,0l132.9-253.3C214.5,275.4,212.3,275.4,210,275.4z"/>
	<path class="st0" d="M221.4,275.4L88.5,528.7c2.2,0,4.5,0,6.8,0l132.9-253.3C225.9,275.4,223.6,275.4,221.4,275.4z"/>
	<path class="st0" d="M144.2,275.4L11.3,528.7c1.7,0,3.6,0,5.6,0l132.9-253.3C148,275.4,146.1,275.4,144.2,275.4z"/>
	<path class="st0" d="M132.9,275.4L0,528.7v0.1c0,0,2.4,0,6.8,0l132.9-253.3C137.4,275.4,135.1,275.4,132.9,275.4z"/>
	<path class="st0" d="M154.4,275.4L21.5,528.7c2.1,0,4.4,0,6.8,0l132.9-253.3C159,275.4,156.7,275.4,154.4,275.4z"/>
	<path class="st0" d="M165.8,275.4L32.9,528.7c2.2,0,4.5,0,6.8,0l132.9-253.3C170.3,275.4,168,275.4,165.8,275.4z"/>
	<path class="st0" d="M553.3,340.3l-98.6,187.9c2-0.2,3.9-0.4,5.8-0.7l95.5-182C555.2,343.7,554.3,342,553.3,340.3z"/>
	<path class="st0" d="M533.2,313.5L420.3,528.7c2.3,0,4.6,0,6.8,0l110.5-210.6C536.2,316.6,534.7,315,533.2,313.5z"/>
	<path class="st0" d="M540.4,321.5L431.7,528.7c2.3,0,4.6,0,6.8,0l106-202C543.2,324.9,541.8,323.2,540.4,321.5z"/>
	<path class="st0" d="M568.8,414.1L524.3,499c5.1-4.3,9.8-8.9,14.1-13.9l27-51.5C567.1,427.3,568.2,420.8,568.8,414.1z"/>
	<path class="st0" d="M501.4,289.8L376.1,528.7c2.3,0,4.6,0,6.8,0l123.8-236C505,291.8,503.2,290.8,501.4,289.8z"/>
	<path class="st0" d="M526.5,307.1L410.2,528.7c1.9,0,3.7,0,5.6,0l114.5-218.2C529,309.4,527.8,308.2,526.5,307.1z"/>
	<path class="st0" d="M510.2,294.9L387.5,528.7c2.3,0,4.6,0,6.8,0l120.9-230.5C513.6,297.1,511.9,295.9,510.2,294.9z"/>
	<path class="st0" d="M569.4,402.1c0-2.6-0.1-5.2-0.2-7.8l-61,116.3c2.9-1.8,5.7-3.6,8.5-5.6l52.7-100.5
		C569.4,403.6,569.4,402.9,569.4,402.1z"/>
	<path class="st0" d="M558.2,350l-92.7,176.7c2.6-0.5,5.2-1,7.7-1.7l88-167.7C560.3,354.8,559.3,352.4,558.2,350z"/>
	<path class="st0" d="M493.3,285.9L365.9,528.7c1.9,0,3.8,0,5.6,0L497.9,288C496.4,287.3,494.8,286.6,493.3,285.9z"/>
	<path class="st0" d="M563.1,362.5l-84.5,161.1c2.8-0.8,5.6-1.7,8.3-2.7l78.7-150C564.8,368,564,365.2,563.1,362.5z"/>
	<path class="st0" d="M547.1,330.4L443.1,528.7c2.3,0,4.6-0.1,6.9-0.2l100.9-192.3C549.7,334.2,548.5,332.3,547.1,330.4z"/>
	<path class="st0" d="M518.5,300.6L398.9,528.7c2.3,0,4.6,0,6.8,0l117.7-224.3C521.8,303.1,520.2,301.8,518.5,300.6z"/>
	<path class="st0" d="M566.9,376.9l-74.3,141.7c3.1-1.3,6.1-2.8,9.1-4.3l66.8-127.3C568.1,383.5,567.5,380.2,566.9,376.9z"/>
</g>
</svg>
