<svg id="shapes" xmlns="http://www.w3.org/2000/svg" viewBox="0 0 216.9 174"><defs><style>.cls-1{fill:none;stroke:#adc23b;stroke-linecap:round;stroke-miterlimit:10;stroke-width:4px;}</style></defs><path class="cls-1" d="M94.9,100.58A25.83,25.83,0,0,0,68.62,74.3a25.82,25.82,0,0,0-18.73,7.56A26.14,26.14,0,0,0,42,100.58a25.83,25.83,0,0,0,26.28,26.29A25.82,25.82,0,0,0,87,119.31,25.33,25.33,0,0,0,94.9,100.58Z"/><path class="cls-1" d="M188.61,134.19a13.53,13.53,0,1,0-4,9.36C187.17,140.67,188.61,137.79,188.61,134.19Z"/><path class="cls-1" d="M176.05,40.89a13.53,13.53,0,1,0-4,9.36A13.07,13.07,0,0,0,176.05,40.89Z"/><path class="cls-1" d="M134.51,91.22v19.09a5.12,5.12,0,0,1-.72,2.16,2,2,0,0,1-1.8,1.08l-15.84,2.52a46,46,0,0,1-3.24,7.92,144.16,144.16,0,0,0,9.36,11.88A5.12,5.12,0,0,1,123,138a2.75,2.75,0,0,1-.72,1.8c-1.44,2.16-4.32,5-8.64,9.37-4,4-6.85,6.12-7.93,6.12a5.12,5.12,0,0,1-2.16-.72l-11.88-9.37a30.24,30.24,0,0,1-7.92,3.25c-.72,7.56-1.44,12.6-2.52,15.84-.36,1.8-1.44,2.52-3.24,2.52H58.89a5.12,5.12,0,0,1-2.16-.72,2,2,0,0,1-1.08-1.8l-2.52-15.84a42.68,42.68,0,0,1-7.56-3.25l-12.24,9a3,3,0,0,1-2.16.72,5.12,5.12,0,0,1-2.16-.72c-10.09-9-14.77-14.77-14.77-16.57a2.75,2.75,0,0,1,.72-1.8,67.51,67.51,0,0,1,4.32-5.4c2.16-2.52,3.6-4.68,4.68-6.12a52.54,52.54,0,0,1-3.6-8.28L4.52,113.55a2,2,0,0,1-1.8-1.08A3.86,3.86,0,0,1,2,110.31V91.22a5.12,5.12,0,0,1,.72-2.16A2,2,0,0,1,4.52,88l15.84-2.52a46,46,0,0,1,3.24-7.92,144.16,144.16,0,0,0-9.36-11.88,5.12,5.12,0,0,1-.72-2.16,5.12,5.12,0,0,1,.72-2.16c1.44-2.16,4.32-5.05,8.28-9s6.85-6.12,8.29-6.12a5.12,5.12,0,0,1,2.16.72l11.88,9.36c2.16-1.08,5-2.16,7.92-3.24.72-7.56,1.44-12.6,2.52-15.84.36-1.8,1.44-2.52,3.24-2.52H77.62a5.12,5.12,0,0,1,2.16.72,2,2,0,0,1,1.08,1.8l2.52,15.84a43.33,43.33,0,0,1,7.56,3.24l12.24-9a3.86,3.86,0,0,1,2.16-.72,5.12,5.12,0,0,1,2.16.72c10.09,9,14.77,14.77,14.77,16.57a2.75,2.75,0,0,1-.72,1.8,67.51,67.51,0,0,1-4.32,5.4c-2.16,2.52-3.6,4.68-4.69,6.12,1.45,3.24,2.89,6.12,3.61,8.28L132,88a2,2,0,0,1,1.8,1.08A5.12,5.12,0,0,1,134.51,91.22Z"/><path class="cls-1" d="M214.9,126.63V141c0,1.08-5,2.16-15.48,3.24a21.54,21.54,0,0,1-3.25,5.4c3.61,7.93,5.41,12.61,5.41,14.41,0,.36,0,.36-.36.72-8.29,5-12.61,7.2-13,7.2-.72,0-2.16-1.44-4.68-4.68s-4.32-5.4-5.4-6.84h-2.88a12.4,12.4,0,0,1-3.24-.36c-1.08,1.44-2.88,4-5.4,6.84-2.52,3.24-4.32,4.68-4.68,4.68,0,0-4.32-2.52-13-7.2-.36-.36-.36-.36-.36-.72,0-1.8,1.8-6.48,5.41-14.41q-1.63-2.7-3.25-5.4c-10.08-1.08-15.48-2.16-15.48-3.24v-14.4c0-1.08,5-2.16,15.48-3.24a13.46,13.46,0,0,1,3.25-5.4c-3.61-7.92-5.41-12.61-5.41-14.41,0-.36,0-.36.36-.72.36,0,1.44-.72,3.6-2.16,2.17-1.08,4.33-2.52,6.13-3.6a16.33,16.33,0,0,1,3.24-1.8c.72,0,2.16,1.44,4.68,4.68s4.32,5.4,5.4,6.85c1.44,0,2.52-.36,3.24-.36a12.4,12.4,0,0,1,3.24.36,137,137,0,0,1,9.36-11.53l.72-.36c.36,0,4.68,2.52,13,7.2.36.36.36.36.36.72,0,1.8-1.8,6.49-5.41,14.41a35.54,35.54,0,0,1,3.25,5.4C209.86,124.47,214.9,125.55,214.9,126.63Z"/><path class="cls-1" d="M202.34,33.69v14.4c0,1.08-5,2.16-15.49,3.24a21.49,21.49,0,0,1-3.24,5.4c3.6,7.92,5.4,12.61,5.4,14.41,0,.36,0,.36-.36.72-8.28,5-12.6,7.2-13,7.2-.72,0-2.16-1.44-4.68-4.68s-4.32-5.4-5.4-6.85c-1.44,0-2.52.36-3.24.36a12.4,12.4,0,0,1-3.24-.36c-1.08,1.45-2.88,4-5.4,6.85-2.52,3.24-4.32,4.68-4.68,4.68,0,0-4.33-2.52-13-7.2-.36-.36-.36-.36-.36-.72,0-1.8,1.8-6.49,5.4-14.41l-3.24-5.4c-10.08-1.08-15.48-2.16-15.48-3.24V33.69c0-1.08,5-2.16,15.48-3.24a13.56,13.56,0,0,1,3.24-5.4c-3.6-7.93-5.4-12.61-5.4-14.41,0-.36,0-.36.36-.72.36,0,1.44-.72,3.6-2.16,2.16-1.08,4.32-2.52,6.12-3.6a16.57,16.57,0,0,1,3.25-1.8c.72,0,2.16,1.44,4.68,4.68s4.32,5.4,5.4,6.84c1.44,0,2.52-.36,3.24-.36a12.4,12.4,0,0,1,3.24.36A138.3,138.3,0,0,1,175,2.36l.72-.36c.36,0,4.68,2.52,13,7.2.36.36.36.36.36.72,0,1.8-1.8,6.48-5.4,14.41a35.56,35.56,0,0,1,3.24,5.4C197.3,31.53,202.34,32.61,202.34,33.69Z"/></svg>