<?xml version="1.0" encoding="UTF-8" standalone="no"?><!DOCTYPE svg PUBLIC "-//W3C//DTD SVG 1.1//EN" "http://www.w3.org/Graphics/SVG/1.1/DTD/svg11.dtd"><svg width="100%" height="100%" viewBox="0 0 388 182" version="1.1" xmlns="http://www.w3.org/2000/svg" xmlns:xlink="http://www.w3.org/1999/xlink" xml:space="preserve" style="fill-rule:evenodd;clip-rule:evenodd;stroke-linejoin:round;stroke-miterlimit:1.41421;"><g><path d="M294.634,78.87c0,-5.416 -1.451,-9.617 -4.352,-12.605c-2.901,-2.987 -7.017,-4.48 -12.346,-4.48c-3.181,0 -6.297,0.515 -9.349,1.547c-3.052,1.032 -5.759,2.493 -8.123,4.384l-6.77,-4.642c2.536,-3.052 5.878,-5.426 10.026,-7.124c4.147,-1.698 8.757,-2.547 13.829,-2.547c5.544,0 10.294,0.978 14.248,2.934c3.954,1.955 6.963,4.792 9.026,8.51c2.063,3.718 3.095,8.199 3.095,13.442l0,43.003l-9.284,0l0,-42.422Zm-19.6,43.389c-7.822,0 -13.883,-1.805 -18.181,-5.416c-4.298,-3.61 -6.447,-8.703 -6.447,-15.279c0,-6.319 1.967,-11.208 5.899,-14.668c3.933,-3.46 9.488,-5.19 16.666,-5.19l21.663,0.132l0,8.555l-21.598,-0.047c-4.298,0 -7.619,0.977 -9.961,2.933c-2.343,1.956 -3.514,4.717 -3.514,8.285c0,3.782 1.472,6.715 4.416,8.8c2.945,2.085 7.103,3.127 12.476,3.127c5.759,0 10.229,-0.58 13.41,-1.741c3.18,-1.16 4.771,-2.794 4.771,-4.9l0,9.167c-1.333,1.376 -1.687,2.17 -3.772,3.18c-2.084,1.01 -4.47,1.773 -7.156,2.288c-2.687,0.516 -5.577,0.774 -8.672,0.774Z" style="fill:none;stroke:#a8a9ac;stroke-width:1px;"/><path d="M210.24,122.259c-6.189,0 -11.476,-1.171 -15.86,-3.514c-4.384,-2.342 -7.726,-5.759 -10.025,-10.251c-2.3,-4.491 -3.449,-9.896 -3.449,-16.214l0,-7.543c0,-6.619 1.106,-12.272 3.32,-16.956c2.214,-4.685 5.426,-8.253 9.639,-10.703c4.212,-2.45 9.283,-3.675 15.215,-3.675c5.587,0 10.358,1.204 14.313,3.611c3.954,2.407 6.973,5.92 9.058,10.541c2.084,4.62 3.127,10.176 3.127,16.666l0,7.672l-46.033,0.645l0,-8.511l37.393,-0.515l0,-0.645c0,-6.619 -1.558,-11.745 -4.674,-15.377c-3.116,-3.631 -7.511,-5.447 -13.184,-5.447c-6.232,0 -11.046,1.912 -14.442,5.738c-3.395,3.825 -5.093,9.24 -5.093,16.246l0,8.511c0,6.705 1.805,11.895 5.416,15.57c3.61,3.674 8.703,5.512 15.279,5.512c3.095,0 6.157,-0.645 9.188,-1.934c3.03,-1.29 5.727,-3.116 8.091,-5.48l6.318,6.06c-3.267,3.181 -6.963,5.641 -11.089,7.382c-4.126,1.741 -8.296,2.611 -12.508,2.611Z" style="fill:none;stroke:#a8a9ac;stroke-width:1px;"/><path d="M346.92,122.259c-3.61,0 -7.113,-0.355 -10.509,-1.064c-3.395,-0.709 -6.565,-1.751 -9.509,-3.127c-2.944,-1.375 -5.556,-3.03 -7.834,-4.964l5.352,-6.512c3.653,2.45 7.435,4.352 11.347,5.706c3.911,1.354 7.629,2.031 11.153,2.031c6.404,0 11.358,-1.096 14.861,-3.288c3.503,-2.192 5.254,-5.287 5.254,-9.284c0,-2.923 -0.849,-5.115 -2.546,-6.576c-1.698,-1.461 -3.836,-2.45 -6.415,-2.966c-2.579,-0.515 -6.168,-0.945 -10.767,-1.289c-0.43,-0.043 -0.87,-0.075 -1.322,-0.097c-0.451,-0.021 -0.892,-0.054 -1.321,-0.097c-0.172,0 -0.344,-0.01 -0.516,-0.032c-0.172,-0.021 -0.344,-0.032 -0.516,-0.032c-4.427,-0.43 -8.123,-1.075 -11.089,-1.934c-2.966,-0.86 -5.448,-2.472 -7.446,-4.836c-1.999,-2.363 -2.998,-5.78 -2.998,-10.251c0,-4.298 1.042,-7.951 3.126,-10.96c2.085,-3.008 5.137,-5.308 9.155,-6.898c4.019,-1.59 8.844,-2.386 14.474,-2.386c2.923,0 5.846,0.291 8.768,0.871c2.923,0.58 5.728,1.418 8.414,2.514c2.686,1.096 5.147,2.418 7.382,3.965l-5.351,6.383c-3.181,-1.848 -6.49,-3.277 -9.929,-4.288c-3.438,-1.01 -6.662,-1.515 -9.671,-1.515c-5.63,0 -9.993,1.053 -13.087,3.16c-3.095,2.106 -4.642,5.071 -4.642,8.897c0,2.664 0.838,4.652 2.514,5.963c1.676,1.311 3.793,2.182 6.351,2.611c2.557,0.43 6.071,0.774 10.541,1.032c0.172,0 0.354,0.011 0.548,0.032c0.193,0.022 0.376,0.032 0.548,0.032c0.129,0 0.258,0 0.387,0c0.129,0 0.257,0.022 0.386,0.065c4.685,0.258 8.672,0.838 11.96,1.741c3.288,0.902 6.05,2.686 8.285,5.351c2.235,2.665 3.352,6.511 3.352,11.54c0,4.341 -1.117,8.038 -3.352,11.089c-2.235,3.052 -5.502,5.384 -9.8,6.995c-4.298,1.612 -9.478,2.418 -15.538,2.418Z" style="fill:none;stroke:#a8a9ac;stroke-width:1px;"/></g><rect x="163.004" y="5.007" width="2.001" height="172.251" style="fill:#b8d3a5;"/><path d="M42.935,35.526c7.335,6.164 11.322,12.835 9.595,20.372c-1.603,3.097 -2.422,3.578 -3.509,5.221l-4.934,-3.034c-4.287,-5.196 -5.354,-15.703 -1.152,-22.559Z" style="fill:none;stroke:#95bf4f;stroke-width:2.46px;stroke-linecap:round;stroke-miterlimit:1.5;"/><path d="M20.169,57.8c4.363,-1.855 9.447,-2.442 15.054,-2.112c6.551,1.171 9.696,4.117 10.189,8.445c-7.128,7.462 -15.571,5.137 -25.243,-6.333Z" style="fill:none;stroke:#b4d19f;stroke-width:2.46px;stroke-linecap:round;stroke-miterlimit:1.5;"/><path d="M13.772,74.727c4.698,-0.631 9.756,0.152 15.075,1.957c6.006,2.866 8.257,6.541 7.584,10.845c-8.851,5.304 -16.375,0.823 -22.659,-12.802Z" style="fill:none;stroke:#b4d284;stroke-width:2.46px;stroke-linecap:round;stroke-miterlimit:1.5;"/><path d="M13.604,106.113c1.793,-4.388 4.99,-8.385 9.204,-12.098c5.476,-3.781 9.784,-3.903 13.181,-1.176c0.192,10.317 -7.44,14.61 -22.385,13.274Z" style="fill:none;stroke:#90b779;stroke-width:2.46px;stroke-linecap:round;stroke-miterlimit:1.5;"/><path d="M20.233,123.378c2.891,-3.758 7.033,-6.765 12.08,-9.229c6.282,-2.196 10.468,-1.173 13.022,2.356c-2.547,9.999 -11.044,12.118 -25.102,6.873Z" style="fill:none;stroke:#c2d1b5;stroke-width:2.46px;stroke-linecap:round;stroke-miterlimit:1.5;"/><path d="M59.243,152.195c-0.481,-4.716 0.462,-9.747 2.436,-15.005c3.056,-5.912 6.8,-8.045 11.08,-7.236c5.02,9.016 0.302,16.393 -13.516,22.241Z" style="fill:none;stroke:#b4d284;stroke-width:2.46px;stroke-linecap:round;stroke-miterlimit:1.5;"/><path d="M107.629,145.557c-3.723,-2.935 -6.681,-7.112 -9.086,-12.187c-2.121,-6.308 -1.048,-10.482 2.51,-12.994c9.969,2.665 11.987,11.187 6.576,25.181Z" style="fill:none;stroke:#b4d19f;stroke-width:2.46px;stroke-linecap:round;stroke-miterlimit:1.5;"/><path d="M137.436,106.87c-4.71,0.534 -9.751,-0.353 -15.031,-2.268c-5.946,-2.99 -8.12,-6.711 -7.359,-11c8.959,-5.12 16.389,-0.484 22.39,13.268Z" style="fill:none;stroke:#95ab71;stroke-width:2.46px;stroke-linecap:round;stroke-miterlimit:1.5;"/><path d="M130.457,58.657c-2.956,3.707 -7.15,6.642 -12.238,9.018c-6.32,2.086 -10.488,0.99 -12.98,-2.582c2.72,-9.954 11.253,-11.925 25.218,-6.436Z" style="fill:none;stroke:#b4d19f;stroke-width:2.46px;stroke-linecap:round;stroke-miterlimit:1.5;"/><path d="M91.437,28.383c0.681,4.691 -0.047,9.758 -1.795,15.095c-2.802,6.036 -6.452,8.327 -10.763,7.7c-5.399,-8.793 -0.999,-16.365 12.558,-22.795Z" style="fill:none;stroke:#95bf4f;stroke-width:2.46px;stroke-linecap:round;stroke-miterlimit:1.5;"/><path d="M42.095,145.594c-1.616,-4.457 -1.928,-9.566 -1.296,-15.147c1.523,-6.478 4.635,-9.459 8.983,-9.718c7.066,7.52 4.289,15.825 -7.687,24.865Z" style="fill:none;stroke:#b1cf7d;stroke-width:2.46px;stroke-linecap:round;stroke-miterlimit:1.5;"/><path d="M90.391,153.317c-4.236,-2.128 -7.973,-5.626 -11.348,-10.115c-3.344,-5.754 -3.132,-10.058 -0.15,-13.233c10.301,0.608 13.989,8.551 11.498,23.348Z" style="fill:none;stroke:#aebb90;stroke-width:2.46px;stroke-linecap:round;stroke-miterlimit:1.5;"/><path d="M130.102,123.96c-4.476,1.563 -9.588,1.815 -15.161,1.116c-6.46,-1.599 -9.404,-4.745 -9.611,-9.097c7.603,-6.976 15.875,-4.101 24.772,7.981Z" style="fill:none;stroke:#83b069;stroke-width:2.46px;stroke-linecap:round;stroke-miterlimit:1.5;"/><path d="M138.211,75.711c-2.081,4.26 -5.537,8.035 -9.988,11.46c-5.716,3.409 -10.022,3.244 -13.231,0.298c0.494,-10.307 8.395,-14.083 23.219,-11.758Z" style="fill:none;stroke:#d0e2b1;stroke-width:2.46px;stroke-linecap:round;stroke-miterlimit:1.5;"/><path d="M108.985,36.065c1.538,4.484 1.761,9.597 1.032,15.166c-1.635,6.451 -4.798,9.378 -9.151,9.56c-6.934,-7.641 -4.012,-15.897 8.119,-24.726Z" style="fill:none;stroke:#89a261;stroke-width:2.46px;stroke-linecap:round;stroke-miterlimit:1.5;"/><path d="M60.269,28.588c4.324,1.945 8.206,5.281 11.768,9.623c3.587,5.605 3.558,9.915 0.714,13.214c-10.318,-0.17 -14.34,-7.949 -12.482,-22.837Z" style="fill:none;stroke:#90b779;stroke-width:2.46px;stroke-linecap:round;stroke-miterlimit:1.5;"/></svg>