<svg xmlns="http://www.w3.org/2000/svg" viewBox="0 0 132.95507 110.07737"><defs><style>.cls-1{fill:none;stroke:#85c986;stroke-linecap:round;stroke-miterlimit:10;stroke-width:3px;}</style></defs><g id="Layer_2" data-name="Layer 2"><g id="Layer_1-2" data-name="Layer 1"><polyline class="cls-1" points="131.455 108.577 8.966 108.577 8.966 3.907"/><path class="cls-1" d="M23.9805,54.56848h7.24792a3.05139,3.05139,0,0,1,3.05139,3.05139v50.9575a0,0,0,0,1,0,0H20.92911a0,0,0,0,1,0,0V57.61987A3.05139,3.05139,0,0,1,23.9805,54.56848Z"/><path class="cls-1" d="M107.26266,63.92323h7.24792a3.05139,3.05139,0,0,1,3.05139,3.05139v41.60275a0,0,0,0,1,0,0H104.21127a0,0,0,0,1,0,0V66.97462A3.05139,3.05139,0,0,1,107.26266,63.92323Z"/><path class="cls-1" d="M86.27088,79.41474H93.5188a3.05139,3.05139,0,0,1,3.05139,3.05139v26.11124a0,0,0,0,1,0,0H83.21949a0,0,0,0,1,0,0V82.46612A3.05139,3.05139,0,0,1,86.27088,79.41474Z"/><path class="cls-1" d="M65.62158,41.02023H72.8695a3.05139,3.05139,0,0,1,3.05139,3.05139v64.50575a0,0,0,0,1,0,0H62.57019a0,0,0,0,1,0,0V44.07162A3.05139,3.05139,0,0,1,65.62158,41.02023Z"/><path class="cls-1" d="M44.801,19.2691H52.049a3.05139,3.05139,0,0,1,3.05139,3.05139v86.25688a0,0,0,0,1,0,0H41.74965a0,0,0,0,1,0,0V22.32049A3.05139,3.05139,0,0,1,44.801,19.2691Z"/><polyline class="cls-1" points="1.5 7.737 8.959 1.904 16.418 7.737"/></g></g></svg>