<svg id="shapes" xmlns="http://www.w3.org/2000/svg" viewBox="0 0 149.27 234"><defs><style>.cls-1{fill:none;stroke:#adc23b;stroke-linecap:round;stroke-miterlimit:10;stroke-width:4px;}</style></defs><path class="cls-1" d="M66.59,183.15a25.3,25.3,0,1,0,30.77,10.34,24.69,24.69,0,0,0-7.76-7.73l-5-2.86c-22.85-12-26.49-18-27.53-37.08-1.18-21.69,15.54-39.33,38.1-52.71s15.16-35.82,3.07-43.74c-8.08-5.3-24.23-14.76-47.65,2.5C37.49,61.53,41.39,76.67,30,80S3.5,80.57,2.1,63.86,13.81,32.37,20.77,25.4A79.62,79.62,0,0,1,77.61,2c30.93,0,69.66,29.26,69.66,62.41s-16.79,53.94-33.5,63.14S96.56,145.77,96.56,150,95.16,167.23,84,174.47"/></svg>