<svg id="shapes" xmlns="http://www.w3.org/2000/svg" viewBox="0 0 196.83 165.19"><defs><style>.cls-1,.cls-2,.cls-3{fill:none;stroke-linecap:round;}.cls-1,.cls-2{stroke:#adc23b;stroke-miterlimit:10;}.cls-1{stroke-width:5px;}.cls-2{stroke-width:3px;}.cls-3{stroke:#acc23b;stroke-width:4px;}</style></defs><path id="Path_291" data-name="Path 291" class="cls-1" d="M194.33,162.69H11.26V5.71"/><path id="Path_292" data-name="Path 292" class="cls-2" d="M46.8,82H31.3a2.4,2.4,0,0,0-2.09,2.62h0v78.05H48.89V84.63A2.39,2.39,0,0,0,46.8,82Z"/><path id="Path_293" data-name="Path 293" class="cls-2" d="M78,29.6H62.5a2.4,2.4,0,0,0-2.09,2.62h0V162.53H80.09V32.22A2.4,2.4,0,0,0,78,29.6Z"/><path id="Path_294" data-name="Path 294" class="cls-2" d="M109.2,61.66H93.7a2.39,2.39,0,0,0-2.09,2.62h0V162.2h19.68V64.28a2.4,2.4,0,0,0-2.09-2.62Z"/><path id="Path_295" data-name="Path 295" class="cls-2" d="M140.39,119.08h-15.5a2.39,2.39,0,0,0-2.08,2.62h0v40.17h19.68V121.7a2.4,2.4,0,0,0-2.09-2.62Z"/><path id="Path_296" data-name="Path 296" class="cls-2" d="M171.59,98h-15.5a2.39,2.39,0,0,0-2.08,2.62h0v60.93h19.68V100.62A2.4,2.4,0,0,0,171.6,98Z"/><path id="Path_472" data-name="Path 472" class="cls-3" d="M2,10.89l9.65-8.2,8.69,8.2"/></svg>