<svg xmlns="http://www.w3.org/2000/svg" xmlns:xlink="http://www.w3.org/1999/xlink" width="116.391" height="105.55" viewBox="0 0 116.391 105.55"><defs><style>.a{fill:none;}.b{clip-path:url(#a);}.c{fill:#321219;}</style><clipPath id="a"><rect class="a" width="116.391" height="105.55"/></clipPath></defs><g class="b"><path class="c" d="M187.277,52.363a3.1,3.1,0,0,0-1.216-1.161,3.181,3.181,0,0,0-3.237.146,3.091,3.091,0,0,0-1.109,1.264l-12.4-6.143c.064-.129.12-.262.172-.4l8.881,2.334a1.565,1.565,0,0,0,.064.344,1.832,1.832,0,0,0,.15.322,1.694,1.694,0,0,0,.224.275,1.5,1.5,0,0,0,.606.348,1.629,1.629,0,0,0,.352.056,1.4,1.4,0,0,0,.352-.034,1.319,1.319,0,0,0,.331-.116,1.354,1.354,0,0,0,.3-.193,1.371,1.371,0,0,0,.241-.258,1.543,1.543,0,0,0,.172-.309,1.358,1.358,0,0,0,.086-.34,1.418,1.418,0,0,0,0-.357,1.6,1.6,0,0,0-.082-.344,1.559,1.559,0,0,0-.163-.314,1.689,1.689,0,0,0-.232-.262,1.363,1.363,0,0,0-.292-.2,1.29,1.29,0,0,0-.331-.125,1.389,1.389,0,0,0-.352-.043,1.616,1.616,0,0,0-.348.047,1.555,1.555,0,0,0-.331.129,1.474,1.474,0,0,0-.288.206,1.358,1.358,0,0,0-.228.267,1.466,1.466,0,0,0-.159.318l-8.812-2.313a1.919,1.919,0,0,1,.034-.249l12.9.383a1.668,1.668,0,0,0,.1.383,1.806,1.806,0,0,0,.193.344,1.667,1.667,0,0,0,.266.284,1.818,1.818,0,0,0,.331.215,1.664,1.664,0,0,0,.374.125,1.5,1.5,0,0,0,.391.03,1.457,1.457,0,0,0,.387-.064,1.513,1.513,0,0,0,.361-.159,1.569,1.569,0,0,0,.31-.241,1.685,1.685,0,0,0,.245-.309,1.591,1.591,0,0,0,.159-.361,1.458,1.458,0,0,0,.064-.387,1.487,1.487,0,0,0-.03-.391,1.665,1.665,0,0,0-.125-.374,1.487,1.487,0,0,0-.211-.331,1.72,1.72,0,0,0-.288-.271,1.488,1.488,0,0,0-.344-.189,1.453,1.453,0,0,0-.378-.1,1.72,1.72,0,0,0-.4,0,1.6,1.6,0,0,0-1.036.512,1.518,1.518,0,0,0-.224.327,1.591,1.591,0,0,0-.138.37l-12.9-.378a1.915,1.915,0,0,0-.026-.232l13.5-4.991a2.5,2.5,0,0,0,.825.9,2.549,2.549,0,0,0,.555.271,2.523,2.523,0,0,0,1.221.09,2.6,2.6,0,0,0,.589-.185,2.351,2.351,0,0,0,.52-.327,2.463,2.463,0,0,0,.43-.43,2.644,2.644,0,0,0,.3-.537,2.609,2.609,0,0,0,.159-.6,2.675,2.675,0,0,0,0-.615,2.579,2.579,0,0,0-.15-.6,2.531,2.531,0,0,0-.292-.542,2.506,2.506,0,0,0-.941-.787,2.278,2.278,0,0,0-.585-.193,2.455,2.455,0,0,0-.615-.039,2.252,2.252,0,0,0-.606.112,2.454,2.454,0,0,0-.559.262,2.43,2.43,0,0,0-1.066,1.461,2.424,2.424,0,0,0-.077.61,2.449,2.449,0,0,0,.077.61L169.52,43.886a3.818,3.818,0,0,0-.138-.37l10.454-6.925a1.367,1.367,0,0,0,.653.37A1.433,1.433,0,0,0,182,36.42a1.509,1.509,0,0,0,.241-.512,1.552,1.552,0,0,0,.026-.563,1.453,1.453,0,0,0-.193-.529,1.42,1.42,0,0,0-1.457-.692,1.453,1.453,0,0,0-.529.193,1.4,1.4,0,0,0-.43.383,1.436,1.436,0,0,0-.241.512,1.376,1.376,0,0,0,.073.89l-10.407,6.878-.107-.155,12.431-12.87a2.3,2.3,0,0,0,.86.43,2.377,2.377,0,0,0,1.118,0,2.523,2.523,0,0,0,.533-.185A2.444,2.444,0,0,0,185.068,29a2.433,2.433,0,0,0,.1-1.659,2.287,2.287,0,0,0-.224-.516,2.373,2.373,0,0,0-.769-.812,2.524,2.524,0,0,0-.507-.249,2.218,2.218,0,0,0-.55-.125,2.467,2.467,0,0,0-.563,0,2.713,2.713,0,0,0-.55.138,2.4,2.4,0,0,0-.5.262,2.682,2.682,0,0,0-.43.37,2.4,2.4,0,0,0-.537.984,2.193,2.193,0,0,0-.086.555,2.471,2.471,0,0,0,.047.563,2.5,2.5,0,0,0,.176.533,2.321,2.321,0,0,0,.3.481L168.617,42.395l-.2-.176,8.068-13.454c.03,0,.052.026.082.03a1.52,1.52,0,0,0,1.032-.12,1.4,1.4,0,0,0,.292-.2,1.543,1.543,0,0,0,.241-.262,1.672,1.672,0,0,0,.163-.314,1.557,1.557,0,0,0,.09-.344,1.613,1.613,0,0,0,0-.352,1.38,1.38,0,0,0-.082-.344,1.561,1.561,0,0,0-.163-.314,1.688,1.688,0,0,0-.232-.262,1.362,1.362,0,0,0-.292-.2,1.289,1.289,0,0,0-.331-.125,1.354,1.354,0,0,0-.348-.043,1.389,1.389,0,0,0-.352.043,1.406,1.406,0,0,0-.619.344,1.518,1.518,0,0,0-.236.262,1.673,1.673,0,0,0-.163.314,1.6,1.6,0,0,0-.082.344,1.38,1.38,0,0,0,0,.352,1.345,1.345,0,0,0,.086.344,1.47,1.47,0,0,0,.168.314,1.694,1.694,0,0,0,.236.262l-8.043,13.381-.168-.09,7.247-18.849a2.317,2.317,0,0,0,.593.06,2.476,2.476,0,0,0,.589-.095,2.334,2.334,0,0,0,1.019-.6,2.437,2.437,0,0,0,.365-.473,2.282,2.282,0,0,0,.236-.546,2.509,2.509,0,0,0,.095-.589,2.281,2.281,0,0,0-.06-.593,2.338,2.338,0,0,0-.537-1.053,2.609,2.609,0,0,0-.43-.4,2.291,2.291,0,0,0-.533-.267,2.265,2.265,0,0,0-.58-.129,2.313,2.313,0,0,0-.6,0,2.235,2.235,0,0,0-.572.168,2.123,2.123,0,0,0-.512.305,2.171,2.171,0,0,0-.43.43,2.217,2.217,0,0,0-.3.516,2.18,2.18,0,0,0-.163.572,2.112,2.112,0,0,0,0,.593,2.265,2.265,0,0,0,.133.585,2.579,2.579,0,0,0,.271.529,2.278,2.278,0,0,0,.4.43,2.385,2.385,0,0,0,.494.335L167.25,41.544l-.193-.06c-.125-.03-.249-.052-.37-.069l.58-16.966a2.321,2.321,0,0,0,1.509-.726,2.148,2.148,0,0,0,.335-.473,2.248,2.248,0,0,0,.211-.542,2.39,2.39,0,0,0,0-1.156,2.422,2.422,0,0,0-.215-.537,2.335,2.335,0,0,0-.344-.473,2.18,2.18,0,0,0-.43-.37,2.364,2.364,0,0,0-.524-.254,2.33,2.33,0,0,0-.567-.112,2.368,2.368,0,0,0-.58.03,2.334,2.334,0,0,0-.559.172,2.553,2.553,0,0,0-.494.305,2.32,2.32,0,0,0-.4.43,2.261,2.261,0,0,0-.292.5,2.294,2.294,0,0,0-.155.559,2.385,2.385,0,0,0,0,.58,2.579,2.579,0,0,0,.129.567,2.257,2.257,0,0,0,.266.516,2.192,2.192,0,0,0,.383.43,2.316,2.316,0,0,0,.481.327,2.187,2.187,0,0,0,.546.2.378.378,0,0,1,.138,0l-.619,17a3.212,3.212,0,0,0-.537.06l-4.8-13.523a2.252,2.252,0,0,0,.512-.34,2.3,2.3,0,0,0,.408-.456,2.5,2.5,0,0,0,.284-.542,2.579,2.579,0,0,0,.138-.6,2.419,2.419,0,0,0,0-.61,2.36,2.36,0,0,0-.168-.589,2.318,2.318,0,0,0-.305-.529,2.442,2.442,0,0,0-.43-.43,2.231,2.231,0,0,0-.524-.314,2.351,2.351,0,0,0-.593-.181,2.455,2.455,0,0,0-.615-.021,2.48,2.48,0,0,0-1.143.43,2.3,2.3,0,0,0-.46.4,2.385,2.385,0,0,0-.348.5,2.3,2.3,0,0,0-.206.576,2.433,2.433,0,0,0-.06.61,2.619,2.619,0,0,0,.095.606,2.48,2.48,0,0,0,.245.559,2.4,2.4,0,0,0,.374.486,2.286,2.286,0,0,0,.486.374,2.373,2.373,0,0,0,1.165.34,2.433,2.433,0,0,0,.61-.06l4.784,13.472a3.516,3.516,0,0,0-.636.318l-12.38-15.191a3.2,3.2,0,0,0,.533-.6,3.044,3.044,0,0,0,.37-.714,3.086,3.086,0,0,0,.181-.782,3.142,3.142,0,0,0-.026-.8,3.227,3.227,0,0,0-.228-.769,3.108,3.108,0,0,0-.43-.688,2.957,2.957,0,0,0-.572-.563,3.387,3.387,0,0,0-.692-.4,3.2,3.2,0,0,0-.778-.211,3.112,3.112,0,0,0-.8,0,3.25,3.25,0,0,0-.782.189,3.185,3.185,0,0,0-.7.378,3.1,3.1,0,0,0-1.023,1.221,3.01,3.01,0,0,0-.249.765,3.116,3.116,0,0,0-.034.778,3.04,3.04,0,0,0,.155.787,3.216,3.216,0,0,0,.344.726,3.4,3.4,0,0,0,.52.615,3.335,3.335,0,0,0,.64.451,3.383,3.383,0,0,0,.752.284,3.327,3.327,0,0,0,.8.086,3.121,3.121,0,0,0,.8-.116,3.383,3.383,0,0,0,.739-.314l12.388,15.2-.12.116L154.045,34.4a1.586,1.586,0,0,0,.206-1.07,1.531,1.531,0,0,0-.185-.524,1.457,1.457,0,0,0-.352-.43,1.483,1.483,0,0,0-.477-.279,1.556,1.556,0,0,0-1.092,0,1.483,1.483,0,0,0-.477.279,1.457,1.457,0,0,0-.352.43,1.53,1.53,0,0,0-.185.524,1.585,1.585,0,0,0,2.377,1.612,1.224,1.224,0,0,0,.142-.107l9.723,8.017c-.069.095-.129.193-.189.292L143.948,31.459a1.95,1.95,0,0,0,.138-.374,2.39,2.39,0,0,0-1.5-2.828,2.321,2.321,0,0,0-.567-.133,2.42,2.42,0,0,0-.585,0,2.321,2.321,0,0,0-.563.15,2.386,2.386,0,0,0-.512.284,2.184,2.184,0,0,0-.43.4,2.455,2.455,0,0,0-.318.49,2.316,2.316,0,0,0-.185.555,2.208,2.208,0,0,0-.052.58,2.149,2.149,0,0,0,.09.576,2.2,2.2,0,0,0,.228.537,2.378,2.378,0,0,0,1.333,1.079,2.4,2.4,0,0,0,.576.112,2.631,2.631,0,0,0,.58-.03,2.549,2.549,0,0,0,.559-.172,2.283,2.283,0,0,0,.5-.305,2.343,2.343,0,0,0,.43-.43l19.283,11.713c-.022.056-.039.112-.056.168l-19.343-4.6a2.149,2.149,0,0,0,0-.524,2.068,2.068,0,0,0-.142-.507,2.107,2.107,0,0,0-.266-.456,2.149,2.149,0,0,0-.821-.649,2.33,2.33,0,0,0-.5-.15,1.986,1.986,0,0,0-.529,0,2.119,2.119,0,0,0-.516.107,2.411,2.411,0,0,0-.473.232,2.348,2.348,0,0,0-.4.344,1.982,1.982,0,0,0-.3.43,2.094,2.094,0,0,0-.189.494,2.15,2.15,0,0,0-.056.524,1.947,1.947,0,0,0,.073.52,1.921,1.921,0,0,0,.2.486,2.175,2.175,0,0,0,.314.43,2.5,2.5,0,0,0,.43.331,2.024,2.024,0,0,0,.481.219,2.1,2.1,0,0,0,.516.095,2.175,2.175,0,0,0,.529-.034,2.063,2.063,0,0,0,.5-.168,2.149,2.149,0,0,0,.43-.284,1.93,1.93,0,0,0,.361-.387,2.085,2.085,0,0,0,.254-.46l19.343,4.591c0,.1-.021.2-.026.3l-24.269.43a2.339,2.339,0,0,0-.15-.559,2.2,2.2,0,0,0-.279-.512,2.291,2.291,0,0,0-.4-.43,2.364,2.364,0,0,0-.486-.318,2.3,2.3,0,0,0-.55-.185,2.411,2.411,0,0,0-.64-.077,2.343,2.343,0,0,0-.572.1,2.029,2.029,0,0,0-.533.232,2.36,2.36,0,0,0-.821.808,2.193,2.193,0,0,0-.236.533,2.312,2.312,0,0,0-.1.572,2.352,2.352,0,0,0,.043.576,2.463,2.463,0,0,0,.181.555,2.437,2.437,0,0,0,.322.494,2.188,2.188,0,0,0,.43.4,2.227,2.227,0,0,0,.5.284,2.54,2.54,0,0,0,.563.155,2.621,2.621,0,0,0,.58,0,2.368,2.368,0,0,0,.567-.133,2.429,2.429,0,0,0,.516-.262,2.192,2.192,0,0,0,.43-.383,2.429,2.429,0,0,0,.331-.477,2.222,2.222,0,0,0,.2-.542,2.115,2.115,0,0,0,.043-.288l24.291-.43a.43.43,0,0,0,.026.176l-11.58,2.115a1.376,1.376,0,0,0-.318-.606,1.44,1.44,0,0,0-.258-.228,1.392,1.392,0,0,0-.305-.163,1.59,1.59,0,0,0-.335-.082,1.573,1.573,0,0,0-.348,0,1.469,1.469,0,0,0-.335.082,1.582,1.582,0,0,0-.305.159,1.659,1.659,0,0,0-.258.232,1.376,1.376,0,0,0-.318.606,1.324,1.324,0,0,0-.043.344,1.346,1.346,0,0,0,.043.344,1.376,1.376,0,0,0,.318.606,1.439,1.439,0,0,0,.258.228,1.375,1.375,0,0,0,.305.159,1.478,1.478,0,0,0,.335.086,1.573,1.573,0,0,0,.348,0,1.6,1.6,0,0,0,.335-.086,1.376,1.376,0,0,0,.305-.159,1.414,1.414,0,0,0,.456-.516,1.456,1.456,0,0,0,.12-.322.326.326,0,0,0,0-.09l11.709-2.149.039.107-18.333,7.093a2.494,2.494,0,0,0-.249-.5,2.176,2.176,0,0,0-.365-.43,2.459,2.459,0,0,0-.451-.335,2.5,2.5,0,0,0-.52-.215,2.361,2.361,0,0,0-1.655.129,2.11,2.11,0,0,0-.477.3,2.2,2.2,0,0,0-.4.4,2.381,2.381,0,0,0-.288.481,2.175,2.175,0,0,0-.172.537,2.468,2.468,0,0,0-.039.563,2.674,2.674,0,0,0,.095.555,2.39,2.39,0,0,0,.563.967,2.15,2.15,0,0,0,.43.357,2.524,2.524,0,0,0,.507.249,2.411,2.411,0,0,0,.55.116,2.054,2.054,0,0,0,.563,0,2.373,2.373,0,0,0,.546-.142,2.4,2.4,0,0,0,.494-.271,2.321,2.321,0,0,0,.43-.378,2.277,2.277,0,0,0,.318-.464,2.3,2.3,0,0,0,.2-.529,2.223,2.223,0,0,0,.052-.791l18.484-7.1c.039.064.082.129.125.193L146.308,59.112a2.334,2.334,0,0,0-.473-.344,2.467,2.467,0,0,0-.542-.219,2.39,2.39,0,0,0-1.156,0,2.442,2.442,0,0,0-.542.211,2.489,2.489,0,0,0-.477.344,2.321,2.321,0,0,0-.735,1.543,2.218,2.218,0,0,0,.034.585,2.321,2.321,0,0,0,.486,1.049,2.347,2.347,0,0,0,.43.4,2.257,2.257,0,0,0,.507.284,2.312,2.312,0,0,0,.563.146,2.393,2.393,0,0,0,1.152-.142,2.368,2.368,0,0,0,.512-.279,2.183,2.183,0,0,0,.43-.4,2.335,2.335,0,0,0,.434-2.2,2.459,2.459,0,0,0-.245-.529l16.988-12.246.159.159L151.466,62.155a1.384,1.384,0,0,0-.331-.138,1.2,1.2,0,0,0-.348-.052,1.414,1.414,0,0,0-.357.034,1.44,1.44,0,0,0-.331.116,1.371,1.371,0,0,0-.3.2,1.4,1.4,0,0,0-.241.262,1.345,1.345,0,0,0-.168.309,1.626,1.626,0,0,0-.09.344,1.652,1.652,0,0,0,0,.357,1.6,1.6,0,0,0,.082.344,1.471,1.471,0,0,0,.168.314,1.543,1.543,0,0,0,.236.267,1.517,1.517,0,0,0,.292.2,1.363,1.363,0,0,0,.335.12,1.216,1.216,0,0,0,.352.039,1.392,1.392,0,0,0,.352-.047,1.535,1.535,0,0,0,.327-.133,1.375,1.375,0,0,0,.288-.211,1.289,1.289,0,0,0,.228-.271,1.452,1.452,0,0,0,.155-.318,1.358,1.358,0,0,0,.073-.348,1.212,1.212,0,0,0,0-.352,1.288,1.288,0,0,0-.1-.34,1.371,1.371,0,0,0-.176-.309l12.388-14.705.1.064-8.6,17.753a3.306,3.306,0,0,0-.787-.176,3.4,3.4,0,0,0-.808.03,3.172,3.172,0,0,0-.769.228,3.327,3.327,0,0,0-.692.43,3.245,3.245,0,0,0-.563.576,3.112,3.112,0,0,0-.4.7,3.314,3.314,0,0,0-.211.778,3.311,3.311,0,0,0,.193,1.586,2.974,2.974,0,0,0,.383.709,3.108,3.108,0,0,0,.55.589,3.181,3.181,0,0,0,2.252.726,3.082,3.082,0,0,0,.787-.159,3.194,3.194,0,0,0,1.805-1.53,3.241,3.241,0,0,0,.365-1.556,3.327,3.327,0,0,0-.12-.8,3.2,3.2,0,0,0-1.449-1.87l8.6-17.749.206.069-2.691,10.91a1.212,1.212,0,0,0-.352,0,1.29,1.29,0,0,0-.34.082,1.47,1.47,0,0,0-.314.168,1.247,1.247,0,0,0-.262.236,1.4,1.4,0,0,0-.2.292,1.291,1.291,0,0,0-.12.331,1.6,1.6,0,0,0-.039.348,1.624,1.624,0,0,0,.052.352,1.462,1.462,0,0,0,.34.61,1.521,1.521,0,0,0,.271.228,1.659,1.659,0,0,0,.318.15,1.358,1.358,0,0,0,.348.073,1.625,1.625,0,0,0,.352,0,1.29,1.29,0,0,0,.335-.1,1.527,1.527,0,0,0,.305-.176,1.393,1.393,0,0,0,.254-.249,1.35,1.35,0,0,0,.185-.3,1.328,1.328,0,0,0,.107-.335,1.379,1.379,0,0,0,.021-.352,1.186,1.186,0,0,0-.064-.344,1.216,1.216,0,0,0-.159-.327,1.457,1.457,0,0,0-.5-.49l2.717-10.966.305.03-.189,16.726a1.414,1.414,0,0,0-.374.1,1.535,1.535,0,0,0-.34.185,1.5,1.5,0,0,0-.284.262,1.539,1.539,0,0,0-.34.692,1.685,1.685,0,0,0-.034.387,1.457,1.457,0,0,0,.064.383,1.534,1.534,0,0,0,.15.357,1.655,1.655,0,0,0,.542.55,1.719,1.719,0,0,0,.352.159,1.663,1.663,0,0,0,.383.069,1.952,1.952,0,0,0,.387-.026,1.587,1.587,0,0,0,.967-.606,1.775,1.775,0,0,0,.193-.34,1.854,1.854,0,0,0,.1-.374,1.664,1.664,0,0,0,0-.387,1.462,1.462,0,0,0-.086-.378,1.513,1.513,0,0,0-.172-.344,1.68,1.68,0,0,0-.254-.3,1.75,1.75,0,0,0-.318-.219,1.573,1.573,0,0,0-.365-.142L166.6,48.4a3.572,3.572,0,0,0,.559-.112l5.979,16.137a3.057,3.057,0,0,0-.679.43,3.28,3.28,0,0,0-.546.6,3.15,3.15,0,0,0-.378.714,3.082,3.082,0,0,0-.185.787,3.008,3.008,0,0,0,0,.808,3.177,3.177,0,0,0,1.9,2.454,3.254,3.254,0,0,0,.774.224,3.185,3.185,0,0,0,.808,0,3.357,3.357,0,0,0,.791-.185,3.073,3.073,0,0,0,.714-.378,3.112,3.112,0,0,0,.6-.542,3.322,3.322,0,0,0,.43-.675,3.06,3.06,0,0,0,.258-.769,3.181,3.181,0,0,0-.95-2.953,3.116,3.116,0,0,0-.658-.473,3.277,3.277,0,0,0-2.356-.292l-5.949-16.119a3.279,3.279,0,0,0,.555-.335L178.62,60.044c0,.03-.034.052-.047.082a1.534,1.534,0,0,0-.112.335,1.626,1.626,0,0,0-.026.352,1.55,1.55,0,0,0,.06.348,1.474,1.474,0,0,0,.142.327,1.643,1.643,0,0,0,.211.279,1.693,1.693,0,0,0,.275.224,1.548,1.548,0,0,0,.322.146,1.354,1.354,0,0,0,.348.069,1.4,1.4,0,0,0,.352,0,1.5,1.5,0,0,0,.335-.1,1.543,1.543,0,0,0,.305-.181,1.392,1.392,0,0,0,.254-.249,1.319,1.319,0,0,0,.185-.3,1.359,1.359,0,0,0,.107-.34,1.209,1.209,0,0,0,.026-.352,1.341,1.341,0,0,0-.06-.344,1.474,1.474,0,0,0-.142-.327,1.668,1.668,0,0,0-.215-.279,1.719,1.719,0,0,0-.275-.219,1.547,1.547,0,0,0-.322-.146,1.354,1.354,0,0,0-.348-.069,1.62,1.62,0,0,0-.352.021,1.315,1.315,0,0,0-.335.1,1.357,1.357,0,0,0-.305.181L168.686,47.355a3.114,3.114,0,0,0,.309-.361l12.5,6.194a3.151,3.151,0,0,0,.335,2.485,3.21,3.21,0,0,0,.374.5,3.032,3.032,0,0,0,.46.43,3.4,3.4,0,0,0,.537.318,3.189,3.189,0,0,0,.589.206,3.008,3.008,0,0,0,.619.09,3.391,3.391,0,0,0,.623-.034,2.948,2.948,0,0,0,.6-.155,3.064,3.064,0,0,0,.563-.267,3.008,3.008,0,0,0,.5-.374,3.285,3.285,0,0,0,.43-.464,2.944,2.944,0,0,0,.318-.537,3.163,3.163,0,0,0,.211-.585,3.3,3.3,0,0,0,.086-.619,3.364,3.364,0,0,0-.03-.623,3.634,3.634,0,0,0-.155-.6A3.392,3.392,0,0,0,187.277,52.363Z" transform="translate(-76.242 -10.397)"/><path class="c" d="M51.985,166.979,39.7,195.026H37.46l-7.355-16.833-7.424,16.837H20.494L8.2,166.983h5.163l10.05,22.95L29.306,176.4l-4.152-9.431h5.214l10.05,23.006,9.99-23.006Z" transform="translate(-4.675 -95.198)"/><path class="c" d="M135.747,188.574v-6.68c-1.406-1.062-4.268-1.792-7.131-1.792-5.279,0-8.2,2.467-8.2,6.448,0,3.7,2.639,6.284,6.74,6.284a10.772,10.772,0,0,0,4.793-1.131,10.918,10.918,0,0,0,3.8-3.134Zm4.991-13.02V194.3h-4.991v-4.152a14.351,14.351,0,0,1-10.609,4.728c-5.5,0-9.938-3.439-9.938-7.914,0-4.655,4.883-8.137,11.9-8.137,3.258,0,6.9.731,8.644,1.853V174.32c0-4.264-3.366-7.35-8.6-7.35-4.771,0-8.928,2.579-8.928,6.018h-1.186c0-4.152,5.051-7.307,11.176-7.307,7.35,0,12.517,4.264,12.517,9.874Z" transform="translate(-65.681 -94.462)"/><path class="c" d="M214.884,180.269c0-8.249-3.761-13.467-9.6-13.467s-9.538,5.214-9.538,13.467,3.757,13.489,9.538,13.489,9.6-5.218,9.6-13.467Zm-24.364,0a14.795,14.795,0,0,1,29.587,0c0,8.3-6.345,14.589-14.826,14.589A14.322,14.322,0,0,1,190.52,180.269Z" transform="translate(-108.625 -94.462)"/></g></svg>