<svg width="93" height="94" viewBox="0 0 93 94" fill="none" xmlns="http://www.w3.org/2000/svg">
<path d="M44.9026 18.603C49.0412 10.9162 41.2842 3.14747 34.1868 0.770302C33.3802 9.09368 36.1715 18.7222 44.9026 18.603Z" fill="#76BF65"/>
<path d="M47.5884 18.603C43.4491 10.9162 51.2064 3.14747 58.3046 0.770302C59.1106 9.09368 56.3192 18.7222 47.5884 18.603Z" fill="#73C52E"/>
<path d="M44.9026 75.433C49.0412 83.116 41.2842 90.8844 34.1868 93.2626C33.3802 84.9395 36.1715 75.3115 44.9026 75.433Z" fill="#A1DA6A"/>
<path d="M47.5884 75.433C43.4491 83.116 51.2064 90.8844 58.3046 93.2626C59.1106 84.9395 56.3192 75.3115 47.5884 75.433Z" fill="#A4C181"/>
<path d="M74.6606 45.6746C82.345 49.8114 90.1152 42.0541 92.4927 34.9567C84.1693 34.1523 74.5412 36.9431 74.6606 45.6746" fill="#C7E8A0"/>
<path d="M74.6606 48.3592C82.345 44.2202 90.1152 51.9765 92.4927 59.0757C84.1693 59.8828 74.5412 57.0899 74.6606 48.3592Z" fill="#85AF5D"/>
<path d="M17.8323 45.6746C10.1456 49.8114 2.37754 42.0541 0 34.9567C8.32251 34.1523 17.9518 36.9431 17.8323 45.6746" fill="#A1DA6A"/>
<path d="M17.8323 48.3592C10.1456 44.2202 2.37754 51.9765 0 59.0757C8.32251 59.8828 17.9518 57.0899 17.8323 48.3592" fill="#76BF65"/>
<path d="M24.9329 27.8745C22.4277 19.5126 11.4468 19.5039 4.74786 22.8448C10.0615 29.2984 18.8449 34.133 24.9329 27.8745Z" fill="#A3D88E"/>
<path d="M26.8324 25.9762C18.4717 23.4695 18.4638 12.488 21.8015 5.78887C28.2582 11.1041 33.0919 19.8873 26.8324 25.9762Z" fill="#73C52E"/>
<path d="M65.118 68.0585C73.4806 70.5645 73.4865 81.5442 70.1491 88.2433C63.6948 82.9307 58.8599 74.1485 65.118 68.0585Z" fill="#A3D88E"/>
<path d="M67.0166 66.1606C69.5243 74.5225 80.5041 74.5277 87.2029 71.1899C81.888 64.736 73.1059 59.9018 67.0166 66.1606" fill="#62B756"/>
<path d="M65.118 25.9749C73.4806 23.4671 73.4865 12.488 70.1491 5.78822C63.6948 11.1024 58.8599 19.8873 65.118 25.9749Z" fill="#74A64D"/>
<path d="M67.0166 27.8734C69.5243 19.5125 80.5041 19.5028 87.2029 22.843C81.8887 29.2983 73.1059 34.1329 67.0166 27.8734" fill="#A3D88E"/>
<path d="M24.9353 66.1606C22.4278 74.5207 11.4469 74.5277 4.7489 71.1899C10.0632 64.736 18.845 59.9018 24.9353 66.1606Z" fill="#BAD6AA"/>
<path d="M26.8339 68.0585C18.4716 70.5645 18.4638 81.5425 21.8029 88.2433C28.2582 82.9289 33.0919 74.1485 26.8339 68.0585Z" fill="#9ED762"/>
</svg>
